# xmcd
#
# Track frame offsets:
#	150
#	10247
#	21328
#	32153
#	41466
#	52081
#	62124
#	74937
#	83589
#	93687
#	103085
#	113984
#	123934
#	135954
#	150753
#	162095
#	173812
#	181663
#	194951
#	204220
#	215326
#	225437
#
# Disc length: 3169 seconds
#
# Revision: 0
# Processed by: cddbd v1.5.1PL2 Copyright (c) Steve Scherf et al.
# Submitted via: dBpowerAMP V4.0
#
DISCID=290c5f16
DTITLE=Various Artist - Flip Doowop Volume Three
DYEAR=1900
DGENRE=Doowop
TTITLE0=Rainiers  - I Won $4000
TTITLE1=Elgins - Uncle Sam's Man
TTITLE2=Six Teens - Oh It's Crazy
TTITLE3=Maharajahs - Sweet Loretta
TTITLE4=Dukes - I Love You
TTITLE5=Richard Berry and  Pharaohs - Louie Louie
TTITLE6=Lena Calhoun and  Emotions - I Ran To You
TTITLE7=King Bees - Puppy Love
TTITLE8=Jimmie Smith and  Lockettes  - I Cry And Cry Every Night
TTITLE9=Ru-Bee-Els  - I'll Try
TTITLE10=Donald Woods and  Vel-Aires  - My Very Own
TTITLE11=Flippers  - My Walkie Talkie Baby
TTITLE12=King Bees  - Give Me Your Number
TTITLE13=Lena Calhoun and  Emotions  - Been Lookin' Your Way
TTITLE14=Dukes - Leap Year Cha Cha
TTITLE15=Ivy Leaguers andt Richard Owens  - Beware Of Love
TTITLE16=Maharajahs  - Oh Shirley
TTITLE17=Richard Berry and  Pharaohs  - Have Love Will Travel
TTITLE18=Lena Calhoun and  Emotions  - I Can Tell (I'm Losing Your Love)
TTITLE19=Elgins  - Casey Cop
TTITLE20=Trudy Williams and  Six Teens  - A Foolish Little Girl
TTITLE21=Donald Woods and  Vel-Aires  - Stay With Me Always
EXTD=\n\n\n\n\n\n\n\n\n\n\n\n\n\n\n\n\n\n
EXTT0=
EXTT1=
EXTT2=
EXTT3=
EXTT4=
EXTT5=
EXTT6=
EXTT7=
EXTT8=
EXTT9=
EXTT10=
EXTT11=
EXTT12=
EXTT13=
EXTT14=
EXTT15=
EXTT16=
EXTT17=
EXTT18=
EXTT19=
EXTT20=
EXTT21=
PLAYORDER=
